<?xml version="1.0" encoding="UTF-8" standalone="no" ?>
<!DOCTYPE svg PUBLIC "-//W3C//DTD SVG 1.1//EN" "http://www.w3.org/Graphics/SVG/1.1/DTD/svg11.dtd">
<svg xmlns="http://www.w3.org/2000/svg" xmlns:xlink="http://www.w3.org/1999/xlink" version="1.1" width="1080" height="1080" viewBox="0 0 1080 1080" xml:space="preserve">
<desc>Created with Fabric.js 5.2.4</desc>
<defs>
</defs>
<rect x="0" y="0" width="100%" height="100%" fill="transparent"></rect>
<g transform="matrix(1 0 0 1 540 540)" id="d69dc9cd-e00d-4943-9140-d1fe368f46b8"  >
<rect style="stroke: none; stroke-width: 1; stroke-dasharray: none; stroke-linecap: butt; stroke-dashoffset: 0; stroke-linejoin: miter; stroke-miterlimit: 4; fill: rgb(255,255,255); fill-rule: nonzero; opacity: 1; visibility: hidden;" vector-effect="non-scaling-stroke"  x="-540" y="-540" rx="0" ry="0" width="1080" height="1080" />
</g>
<g transform="matrix(1 0 0 1 540 540)" id="23023e98-8db0-48df-89c4-91c67716206a"  >
</g>
<g transform="matrix(15.2 0 0 15.2 540.1 540.1)" id="02cca83f-80fa-4b15-bed2-a85c4a0d844c"  >
<circle style="stroke: rgb(0,0,0); stroke-width: 0; stroke-dasharray: none; stroke-linecap: butt; stroke-dashoffset: 0; stroke-linejoin: miter; stroke-miterlimit: 4; fill: rgb(255,255,255); fill-rule: nonzero; opacity: 1;" vector-effect="non-scaling-stroke"  cx="0" cy="0" r="35" />
</g>
<g transform="matrix(17.62 0 0 17.62 540 540)"  >
<g style="" vector-effect="non-scaling-stroke"   >
		<g transform="matrix(1 0 0 1 0 12.53)"  >
<ellipse style="stroke: none; stroke-width: 1; stroke-dasharray: none; stroke-linecap: butt; stroke-dashoffset: 0; stroke-linejoin: miter; stroke-miterlimit: 4; fill: rgb(59,136,195); fill-rule: nonzero; opacity: 1;" vector-effect="non-scaling-stroke"  cx="0" cy="0" rx="18" ry="5.36" />
</g>
		<g transform="matrix(1 0 0 1 1.77 10.36)"  >
<path style="stroke: none; stroke-width: 1; stroke-dasharray: none; stroke-linecap: butt; stroke-dashoffset: 0; stroke-linejoin: miter; stroke-miterlimit: 4; fill: rgb(136,201,249); fill-rule: nonzero; opacity: 1;" vector-effect="non-scaling-stroke"  transform=" translate(-19.77, -28.37)" d="M 33.813 28.538 C 33.813 30.154 31.313000000000002 31.125 19.331000000000003 31.125 C 8.406000000000002 31.125 5.719000000000003 30.154 5.719000000000003 28.538 C 5.719000000000003 26.922 11.402000000000003 25.612000000000002 19.331000000000003 25.612000000000002 C 27.260000000000005 25.612000000000002 33.813 26.922 33.813 28.538000000000004 z" stroke-linecap="round" />
</g>
		<g transform="matrix(1 0 0 1 2 8.74)"  >
<path style="stroke: none; stroke-width: 1; stroke-dasharray: none; stroke-linecap: butt; stroke-dashoffset: 0; stroke-linejoin: miter; stroke-miterlimit: 4; fill: rgb(244,144,12); fill-rule: nonzero; opacity: 1;" vector-effect="non-scaling-stroke"  transform=" translate(-20, -26.75)" d="M 7 28.25 C 7 27.25 8 23.25 18 23.25 C 30 23.25 33 27.25 33 28.25 C 33 29.25 33 30.25 19 30.25 C 7 30.25 7 29.25 7 28.25 z" stroke-linecap="round" />
</g>
		<g transform="matrix(1 0 0 1 3.91 -3.61)"  >
<path style="stroke: none; stroke-width: 1; stroke-dasharray: none; stroke-linecap: butt; stroke-dashoffset: 0; stroke-linejoin: miter; stroke-miterlimit: 4; fill: rgb(102,117,127); fill-rule: nonzero; opacity: 1;" vector-effect="non-scaling-stroke"  transform=" translate(-21.91, -14.4)" d="M 20.62 27.667 C 20.470000000000002 28.359 19.785 28.8 19.093 28.649 C 18.4 28.499000000000002 17.96 27.815 18.11 27.122 L 23.192999999999998 1.1370000000000005 C 23.342999999999996 0.4440000000000005 24.026999999999997 0.0050000000000005596 24.72 0.15500000000000047 C 25.410999999999998 0.3050000000000005 25.852999999999998 0.9890000000000004 25.701 1.6820000000000004 z" stroke-linecap="round" />
</g>
		<g transform="matrix(1 0 0 1 4.06 -8.7)"  >
<path style="stroke: none; stroke-width: 1; stroke-dasharray: none; stroke-linecap: butt; stroke-dashoffset: 0; stroke-linejoin: miter; stroke-miterlimit: 4; fill: rgb(221,46,68); fill-rule: nonzero; opacity: 1;" vector-effect="non-scaling-stroke"  transform=" translate(-22.06, -9.31)" d="M 24.358 1.827 C 16.736 0.17300000000000004 9.501000000000001 3.7 8.198 9.705 C 8.198 9.705 7.835000000000001 11.377 8.672 11.559000000000001 C 9.508000000000001 11.741000000000001 11.544 10.431000000000001 11.544 10.431000000000001 L 32.452 14.969000000000001 C 32.452 14.969000000000001 33.760999999999996 17.005000000000003 34.598 17.187 C 35.435 17.369 35.797 15.696000000000002 35.797 15.696000000000002 C 37.101 9.690000000000001 31.978999999999996 3.4810000000000016 24.357999999999997 1.8270000000000017 z" stroke-linecap="round" />
</g>
		<g transform="matrix(1 0 0 1 4.11 -9.05)"  >
<path style="stroke: none; stroke-width: 1; stroke-dasharray: none; stroke-linecap: butt; stroke-dashoffset: 0; stroke-linejoin: miter; stroke-miterlimit: 4; fill: rgb(255,232,182); fill-rule: nonzero; opacity: 1;" vector-effect="non-scaling-stroke"  transform=" translate(-22.11, -8.96)" d="M 24.358 1.827 C 18.584 0.5740000000000001 12.847000000000001 4.426 11.544 10.43 C 11.544 10.43 11.181000000000001 12.103 12.854000000000001 12.466 C 14.527000000000001 12.83 17.399 11.700999999999999 17.399 11.700999999999999 L 26.598 13.697999999999999 C 26.598 13.697999999999999 28.744 15.915 30.416999999999998 16.279 C 32.089999999999996 16.641 32.452 14.968 32.452 14.968 C 33.754999999999995 8.964 30.130999999999997 3.08 24.357999999999997 1.827 z" stroke-linecap="round" />
</g>
		<g transform="matrix(1 0 0 1 4.33 -9.86)"  >
<path style="stroke: none; stroke-width: 1; stroke-dasharray: none; stroke-linecap: butt; stroke-dashoffset: 0; stroke-linejoin: miter; stroke-miterlimit: 4; fill: rgb(221,46,68); fill-rule: nonzero; opacity: 1;" vector-effect="non-scaling-stroke"  transform=" translate(-22.33, -8.15)" d="M 24.358 1.827 C 21.355 1.176 18.701 5.697 17.398 11.701 C 17.398 11.701 19.544 13.919 21.216 14.281 L 22.053 14.464 C 23.726 14.826 26.597 13.698 26.597 13.698 C 27.901 7.694000000000001 27.361 2.479000000000001 24.358 1.827 z" stroke-linecap="round" />
</g>
		<g transform="matrix(1 0 0 1 1.1 9.78)"  >
<path style="stroke: none; stroke-width: 1; stroke-dasharray: none; stroke-linecap: butt; stroke-dashoffset: 0; stroke-linejoin: miter; stroke-miterlimit: 4; fill: rgb(255,172,51); fill-rule: nonzero; opacity: 1;" vector-effect="non-scaling-stroke"  transform=" translate(-19.1, -27.79)" d="M 15.844 27.948 C 16.313 27.521 17.594 27.622 18.344 27.346 C 19.094 27.07 19.563000000000002 26.719 20.188000000000002 26.97 C 20.813000000000002 27.220999999999997 21.000000000000004 27.596999999999998 21.594 27.648 C 22.188 27.699 22.625 28.05 22.375 28.326 C 22.125 28.602 20.156 28.702 18.844 28.702 C 17.532000000000004 28.702 15.265 28.476000000000003 15.844000000000001 27.948 z" stroke-linecap="round" />
</g>
</g>
</g>
</svg>