<?xml version="1.0" encoding="UTF-8" standalone="no" ?>
<!DOCTYPE svg PUBLIC "-//W3C//DTD SVG 1.1//EN" "http://www.w3.org/Graphics/SVG/1.1/DTD/svg11.dtd">
<svg xmlns="http://www.w3.org/2000/svg" xmlns:xlink="http://www.w3.org/1999/xlink" version="1.1" width="1080" height="1080" viewBox="0 0 1080 1080" xml:space="preserve">
<desc>Created with Fabric.js 5.2.4</desc>
<defs>
</defs>
<g transform="matrix(1 0 0 1 540 540)" id="8f7a1ee4-8fc6-4e01-bb34-3478ef62499c"  >
<rect style="stroke: none; stroke-width: 1; stroke-dasharray: none; stroke-linecap: butt; stroke-dashoffset: 0; stroke-linejoin: miter; stroke-miterlimit: 4; fill: rgb(255,255,255); fill-rule: nonzero; opacity: 1; visibility: hidden;" vector-effect="non-scaling-stroke"  x="-540" y="-540" rx="0" ry="0" width="1080" height="1080" />
</g>
<g transform="matrix(1 0 0 1 540 540)" id="3e3c740f-e467-4fdf-b963-7eb39b4a42c6"  >
</g>
<g transform="matrix(15.13 0 0 15.13 536.75 536.75)" id="3d68de4a-0044-426e-802c-a80a1368adbe"  >
<circle style="stroke: rgb(0,0,0); stroke-width: 0; stroke-dasharray: none; stroke-linecap: butt; stroke-dashoffset: 0; stroke-linejoin: miter; stroke-miterlimit: 4; fill: rgb(255,255,255); fill-rule: nonzero; opacity: 1;" vector-effect="non-scaling-stroke"  cx="0" cy="0" r="35" />
</g>
<g transform="matrix(4.64 0 0 4.64 540 540)"  >
<g style="" vector-effect="non-scaling-stroke"   >
		<g transform="matrix(1 0 0 1 2.42 14.91)"  >
<path style="stroke: none; stroke-width: 1; stroke-dasharray: none; stroke-linecap: butt; stroke-dashoffset: 0; stroke-linejoin: miter; stroke-miterlimit: 4; fill: rgb(85,139,47); fill-rule: nonzero; opacity: 1;" vector-effect="non-scaling-stroke"  transform=" translate(-66.48, -80.11)" d="M 74.81 47.29 C 74.81 47.29 74.64 47.5 74.33 47.89 C 74.03 48.28 73.53 48.86 72.99 49.6 C 72.5 50.36 71.83999999999999 51.190000000000005 71.19999999999999 52.300000000000004 C 70.88 52.85 70.52999999999999 53.43000000000001 70.16999999999999 54.040000000000006 C 69.82999999999998 54.660000000000004 69.49999999999999 55.34 69.13999999999999 56.03000000000001 C 68.76999999999998 56.71000000000001 68.43999999999998 57.46000000000001 68.10999999999999 58.24000000000001 C 67.78999999999999 59.02000000000001 67.38999999999999 59.80000000000001 67.11999999999999 60.650000000000006 C 66.82 61.49000000000001 66.49999999999999 62.36000000000001 66.17999999999999 63.24000000000001 C 65.91 64.14000000000001 65.63999999999999 65.07000000000001 65.36999999999999 66.01 C 65.07 66.94000000000001 64.88999999999999 67.93 64.64999999999999 68.91000000000001 C 64.41999999999999 69.89000000000001 64.17999999999999 70.88000000000001 64.02999999999999 71.91000000000001 C 63.859999999999985 72.93 63.66999999999999 73.95000000000002 63.509999999999984 74.98 L 63.11999999999998 78.10000000000001 C 62.969999999999985 79.13000000000001 62.91999999999998 80.19000000000001 62.83999999999998 81.23 C 62.77999999999998 82.27000000000001 62.65999999999998 83.31 62.63999999999998 84.34 C 62.619999999999976 86.41 62.48999999999998 88.44 62.58999999999998 90.41 C 62.63999999999998 92.38 62.66999999999998 94.28 62.83999999999998 96.09 C 62.97999999999998 97.89 63.05999999999998 99.60000000000001 63.27999999999998 101.17 C 63.45999999999998 102.74 63.61999999999998 104.18 63.75999999999998 105.46000000000001 C 63.95999999999998 106.73 64.12999999999998 107.84 64.26999999999998 108.75000000000001 C 64.54999999999998 110.57000000000001 64.70999999999998 111.62000000000002 64.70999999999998 111.62000000000002 L 64.72999999999998 111.73000000000002 C 64.95999999999998 113.21000000000002 63.939999999999976 114.60000000000002 62.45999999999997 114.82000000000002 C 60.979999999999976 115.05000000000003 59.589999999999975 114.03000000000002 59.369999999999976 112.55000000000003 C 59.369999999999976 112.53000000000003 59.35999999999998 112.49000000000002 59.35999999999998 112.47000000000003 C 59.35999999999998 112.47000000000003 59.21999999999998 111.39000000000003 58.98999999999998 109.49000000000002 C 58.86999999999998 108.54000000000002 58.72999999999998 107.39000000000003 58.55999999999998 106.07000000000002 C 58.44999999999998 104.74000000000002 58.329999999999984 103.24000000000002 58.19999999999998 101.61000000000003 C 58.039999999999985 99.98000000000003 58.01999999999998 98.20000000000003 57.94999999999998 96.32000000000002 C 57.84999999999998 94.44000000000003 57.899999999999984 92.45000000000002 57.92999999999998 90.40000000000002 C 57.909999999999975 88.35000000000002 58.12999999999998 86.22000000000003 58.229999999999976 84.07000000000002 C 58.28999999999998 82.99000000000002 58.449999999999974 81.91000000000003 58.559999999999974 80.82000000000002 C 58.689999999999976 79.73000000000002 58.77999999999997 78.64000000000001 58.979999999999976 77.56000000000002 C 59.159999999999975 76.48000000000002 59.339999999999975 75.39000000000001 59.50999999999998 74.31000000000002 C 59.729999999999976 73.24000000000002 59.989999999999974 72.17000000000002 60.21999999999998 71.11000000000001 C 60.439999999999976 70.05000000000001 60.729999999999976 69.01000000000002 61.02999999999998 67.99000000000001 C 61.33999999999998 66.97000000000001 61.57999999999998 65.95 61.94999999999998 64.98 C 62.289999999999985 64 62.62999999999998 63.050000000000004 62.95999999999998 62.11000000000001 C 63.34999999999998 61.190000000000005 63.71999999999998 60.290000000000006 64.08999999999997 59.42000000000001 C 64.42999999999998 58.540000000000006 64.88999999999997 57.73000000000001 65.26999999999998 56.92000000000001 C 65.65999999999998 56.12000000000001 66.04999999999998 55.35000000000001 66.47999999999998 54.63000000000001 C 66.89999999999998 53.91000000000001 67.27999999999997 53.22000000000001 67.67999999999998 52.57000000000001 C 68.09999999999998 51.940000000000005 68.50999999999998 51.35000000000001 68.88999999999997 50.790000000000006 C 69.62999999999997 49.67000000000001 70.44999999999997 48.75000000000001 71.02999999999997 47.970000000000006 C 71.64999999999998 47.230000000000004 72.14999999999998 46.720000000000006 72.48999999999997 46.330000000000005 C 72.82999999999997 45.96000000000001 73.00999999999996 45.760000000000005 73.00999999999996 45.760000000000005 C 73.44999999999996 45.28000000000001 74.18999999999997 45.24 74.66999999999996 45.68000000000001 C 75.14999999999996 46.11000000000001 75.19999999999996 46.81000000000001 74.80999999999996 47.290000000000006 z" stroke-linecap="round" />
</g>
		<g transform="matrix(1 0 0 1 -0.71 48.07)"  >
<linearGradient id="SVGID_a_3" gradientUnits="userSpaceOnUse" gradientTransform="matrix(1 0 0 1 0 0)"  x1="63.352" y1="124.29" x2="63.352" y2="105.97">
<stop offset="0.22754%" style="stop-color:rgb(93,64,55);stop-opacity: 1"/>
<stop offset="100%" style="stop-color:rgb(141,110,99);stop-opacity: 1"/>
</linearGradient>
<path style="stroke: none; stroke-width: 1; stroke-dasharray: none; stroke-linecap: butt; stroke-dashoffset: 0; stroke-linejoin: miter; stroke-miterlimit: 4; fill: url(#SVGID_a_3); fill-rule: nonzero; opacity: 1;" vector-effect="non-scaling-stroke"  transform=" translate(-63.35, -113.27)" d="M 36.92 110.9 C 41.660000000000004 105.93 48.150000000000006 101.39 54.88 102.78 C 59.89 103.82000000000001 64.5 108.06 69.43 106.7 C 71 106.27 72.38000000000001 105.29 73.97000000000001 104.94 C 77.69000000000001 104.11 81.24000000000001 106.89 83.63000000000001 109.86 C 86.02000000000001 112.83 88.10000000000001 116.34 91.57000000000001 117.93 C 93.71000000000001 118.91000000000001 96.13000000000001 119.03 98.4 119.66000000000001 C 100.67 120.29000000000002 103.53 124.01 103.53 124.01 L 23.17 123.60000000000001 C 23.17 123.60000000000001 28.880000000000003 119.43 30.200000000000003 118.13000000000001 C 32.550000000000004 115.81000000000002 34.650000000000006 113.28000000000002 36.92 110.9 z" stroke-linecap="round" />
</g>
		<g transform="matrix(1 0 0 1 -0.7 48.06)"  >
<path style="stroke: none; stroke-width: 1; stroke-dasharray: none; stroke-linecap: butt; stroke-dashoffset: 0; stroke-linejoin: miter; stroke-miterlimit: 4; fill: rgb(66,66,66); fill-rule: nonzero; opacity: 0.2;" vector-effect="non-scaling-stroke"  transform=" translate(-63.36, -113.26)" d="M 52.38 105.52 C 53.02 105.52 53.650000000000006 105.58 54.27 105.71 C 55.800000000000004 106.02999999999999 57.39 106.75 59.07 107.52999999999999 C 61.68 108.72999999999999 64.38 109.96 67.43 109.96 C 68.38000000000001 109.96 69.32000000000001 109.83 70.22000000000001 109.58999999999999 C 71.19000000000001 109.32 72.05000000000001 108.91999999999999 72.81000000000002 108.57 C 73.47000000000001 108.25999999999999 74.09000000000002 107.97999999999999 74.62000000000002 107.86 C 74.85000000000002 107.81 75.08000000000001 107.78 75.32000000000002 107.78 C 77.07000000000002 107.78 79.30000000000003 109.26 81.29000000000002 111.73 C 81.74000000000002 112.29 82.19000000000003 112.88000000000001 82.65000000000002 113.5 C 84.62000000000002 116.11 86.86000000000001 119.06 90.31000000000002 120.65 C 90.54000000000002 120.75 90.76000000000002 120.85000000000001 90.99000000000002 120.94000000000001 L 31.890000000000022 120.64000000000001 C 32.05000000000002 120.50000000000001 32.19000000000002 120.37000000000002 32.30000000000002 120.26000000000002 C 33.75000000000002 118.84000000000002 35.100000000000016 117.34000000000002 36.40000000000002 115.89000000000001 C 37.27000000000002 114.92000000000002 38.17000000000002 113.92000000000002 39.07000000000002 112.98000000000002 C 42.33000000000002 109.57000000000002 47.270000000000024 105.52000000000002 52.380000000000024 105.52000000000002 M 52.380000000000024 102.52000000000002 C 46.560000000000024 102.52000000000002 41.07000000000002 106.55000000000003 36.92000000000002 110.90000000000002 C 34.65000000000002 113.28000000000002 32.550000000000026 115.81000000000002 30.210000000000022 118.12000000000002 C 28.890000000000022 119.42000000000002 23.18000000000002 123.59000000000002 23.18000000000002 123.59000000000002 L 103.54000000000002 124.00000000000001 C 103.54000000000002 124.00000000000001 100.68000000000002 120.29000000000002 98.41000000000003 119.65000000000002 C 96.14000000000003 119.02000000000002 93.72000000000003 118.90000000000002 91.58000000000003 117.92000000000002 C 88.11000000000003 116.33000000000001 86.03000000000003 112.82000000000002 83.64000000000003 109.85000000000002 C 81.54000000000003 107.24000000000002 78.55000000000003 104.78000000000003 75.33000000000003 104.78000000000003 C 74.88000000000002 104.78000000000003 74.43000000000002 104.83000000000003 73.98000000000003 104.93000000000004 C 72.39000000000003 105.28000000000003 71.01000000000003 106.26000000000003 69.44000000000003 106.69000000000004 C 68.77000000000002 106.87000000000005 68.11000000000003 106.96000000000004 67.45000000000003 106.96000000000004 C 63.25000000000003 106.96000000000004 59.22000000000003 103.67000000000003 54.89000000000003 102.77000000000004 C 54.04000000000003 102.61000000000004 53.21000000000003 102.52000000000004 52.38000000000003 102.52000000000004 z" stroke-linecap="round" />
</g>
		<g transform="matrix(1 0 0 1 -31.73 -10.92)"  >
<linearGradient id="SVGID_b_4" gradientUnits="userSpaceOnUse" gradientTransform="matrix(1 0 0 1 0 0)"  x1="9.8166" y1="34.963" x2="51.348" y2="69.765">
<stop offset="0%" style="stop-color:rgb(156,204,101);stop-opacity: 1"/>
<stop offset="99.52%" style="stop-color:rgb(104,159,56);stop-opacity: 1"/>
</linearGradient>
<path style="stroke: none; stroke-width: 1; stroke-dasharray: none; stroke-linecap: butt; stroke-dashoffset: 0; stroke-linejoin: miter; stroke-miterlimit: 4; fill: url(#SVGID_b_4); fill-rule: nonzero; opacity: 1;" vector-effect="non-scaling-stroke"  transform=" translate(-32.33, -54.28)" d="M 4.2 32.24 C 4.2 32.24 3.3800000000000003 58.160000000000004 24.24 70.06 C 45.099999999999994 81.96000000000001 60.39999999999999 73.98 60.39999999999999 73.98 C 60.39999999999999 73.98 64.39999999999999 28.000000000000007 4.199999999999989 32.24 z" stroke-linecap="round" />
</g>
		<g transform="matrix(1 0 0 1 -31.73 -10.92)"  >
<path style="stroke: none; stroke-width: 1; stroke-dasharray: none; stroke-linecap: butt; stroke-dashoffset: 0; stroke-linejoin: miter; stroke-miterlimit: 4; fill: rgb(66,66,66); fill-rule: nonzero; opacity: 0.2;" vector-effect="non-scaling-stroke"  transform=" translate(-32.33, -54.28)" d="M 11.79 34.7 C 28.32 34.7 40.66 39.010000000000005 48.48 47.5 C 56.79 56.519999999999996 57.67999999999999 67.97 57.699999999999996 72.14 C 55.8 72.83 52.11 73.86 47.16 73.86 C 40.029999999999994 73.86 32.769999999999996 71.78 25.589999999999996 67.68 C 10.099999999999996 58.85000000000001 7.459999999999997 41.31 7.019999999999996 34.82000000000001 C 8.639999999999997 34.74000000000001 10.239999999999997 34.70000000000001 11.789999999999996 34.70000000000001 M 11.789999999999996 31.960000000000008 C 9.379999999999995 31.960000000000008 6.859999999999996 32.05000000000001 4.199999999999996 32.24000000000001 C 4.199999999999996 32.24000000000001 3.379999999999996 58.16000000000001 24.239999999999995 70.06 C 33.14999999999999 75.15 41.05 76.60000000000001 47.169999999999995 76.60000000000001 C 55.379999999999995 76.60000000000001 60.39999999999999 73.98 60.39999999999999 73.98 C 60.39999999999999 73.98 64.03999999999999 31.96 11.789999999999992 31.96 z" stroke-linecap="round" />
</g>
		<g transform="matrix(1 0 0 1 29.58 -30.67)"  >
<linearGradient id="SVGID_c_5" gradientUnits="userSpaceOnUse" gradientTransform="matrix(1 0 0 1 0 0)"  x1="67.623" y1="56.992" x2="114.11" y2="14.04">
<stop offset="0.48070999999999997%" style="stop-color:rgb(104,159,56);stop-opacity: 1"/>
<stop offset="100%" style="stop-color:rgb(156,204,101);stop-opacity: 1"/>
</linearGradient>
<path style="stroke: none; stroke-width: 1; stroke-dasharray: none; stroke-linecap: butt; stroke-dashoffset: 0; stroke-linejoin: miter; stroke-miterlimit: 4; fill: url(#SVGID_c_5); fill-rule: nonzero; opacity: 1;" vector-effect="non-scaling-stroke"  transform=" translate(-93.64, -34.53)" d="M 123.92 7.86 C 123.92 7.86 93.78 0.020000000000000462 76.31 20.61 C 58.84 41.199999999999996 64.09 61.7 64.09 61.7 C 64.09 61.7 115.79 74.39 123.92 7.859999999999999 z" stroke-linecap="round" />
</g>
		<g transform="matrix(1 0 0 1 29.57 -30.67)"  >
<path style="stroke: none; stroke-width: 1; stroke-dasharray: none; stroke-linecap: butt; stroke-dashoffset: 0; stroke-linejoin: miter; stroke-miterlimit: 4; fill: rgb(66,66,66); fill-rule: nonzero; opacity: 0.2;" vector-effect="non-scaling-stroke"  transform=" translate(-93.63, -34.53)" d="M 110.48 9.13 C 114.9 9.13 118.61 9.63 120.87 10.020000000000001 C 118.14 29.060000000000002 111.4 42.89 100.80000000000001 51.160000000000004 C 91.52000000000001 58.400000000000006 81.06000000000002 59.92 73.91000000000001 59.92 C 70.67000000000002 59.92 68.04 59.61 66.44000000000001 59.35 C 65.71000000000001 54.28 64.82000000000001 38.36 78.39000000000001 22.36 C 87.69000000000001 11.43 100.97000000000001 9.129999999999999 110.48000000000002 9.129999999999999 M 110.48000000000002 6.389999999999999 C 100.23000000000002 6.389999999999999 86.23000000000002 8.919999999999998 76.31000000000002 20.6 C 58.84000000000002 41.19 64.09000000000002 61.7 64.09000000000002 61.7 C 64.09000000000002 61.7 68.03000000000002 62.67 73.91000000000003 62.67 C 89.32000000000002 62.67 118.03000000000003 56.02 123.91000000000003 7.859999999999999 C 123.92000000000003 7.859999999999999 118.28000000000003 6.39 110.48000000000002 6.39 z" stroke-linecap="round" />
</g>
		<g transform="matrix(1 0 0 1 24.67 -29.48)"  >
<path style="stroke: none; stroke-width: 1; stroke-dasharray: none; stroke-linecap: butt; stroke-dashoffset: 0; stroke-linejoin: miter; stroke-miterlimit: 4; fill: rgb(51,105,30); fill-rule: nonzero; opacity: 0.2;" vector-effect="non-scaling-stroke"  transform=" translate(-88.72, -35.72)" d="M 67.56 55.35 C 67.56 55.35 68.03 54.54 68.86 53.13 C 69.27 52.42 69.77 51.57 70.41 50.59 C 71.03999999999999 49.620000000000005 71.71 48.49 72.53 47.34 C 73.33 46.17 74.19 44.900000000000006 75.17 43.61000000000001 C 76.11 42.290000000000006 77.19 40.96000000000001 78.3 39.580000000000005 C 78.84 38.88 79.46 38.220000000000006 80.03999999999999 37.53000000000001 C 80.63 36.84000000000001 81.22999999999999 36.14000000000001 81.86999999999999 35.470000000000006 C 82.49999999999999 34.790000000000006 83.13999999999999 34.11000000000001 83.78999999999999 33.43000000000001 C 84.46 32.77000000000001 85.11999999999999 32.10000000000001 85.78999999999999 31.44000000000001 C 86.44999999999999 30.770000000000007 87.16999999999999 30.15000000000001 87.85 29.51000000000001 C 88.53 28.870000000000008 89.22999999999999 28.24000000000001 89.94 27.65000000000001 C 91.33 26.43000000000001 92.75999999999999 25.300000000000008 94.14 24.210000000000008 C 95.54 23.15000000000001 96.9 22.13000000000001 98.23 21.210000000000008 C 99.56 20.300000000000008 100.81 19.44000000000001 102.01 18.70000000000001 C 103.19000000000001 17.93000000000001 104.29 17.27000000000001 105.28 16.70000000000001 C 106.26 16.11000000000001 107.12 15.61000000000001 107.84 15.23000000000001 C 109.27000000000001 14.440000000000008 110.09 13.990000000000009 110.09 13.990000000000009 C 110.09 13.990000000000009 109.29 14.48000000000001 107.9 15.330000000000009 C 107.2 15.750000000000009 106.36 16.29000000000001 105.41000000000001 16.92000000000001 C 104.45000000000002 17.54000000000001 103.38000000000001 18.250000000000007 102.25000000000001 19.06000000000001 C 101.09000000000002 19.85000000000001 99.88000000000001 20.76000000000001 98.61000000000001 21.73000000000001 C 97.33000000000001 22.70000000000001 96.03000000000002 23.77000000000001 94.69000000000001 24.89000000000001 C 93.37000000000002 26.030000000000012 92.01 27.21000000000001 90.69000000000001 28.48000000000001 C 90.01 29.100000000000012 89.36000000000001 29.740000000000013 88.71000000000001 30.41000000000001 C 88.07000000000001 31.080000000000013 87.39000000000001 31.71000000000001 86.77000000000001 32.40000000000001 C 86.14000000000001 33.08000000000001 85.51 33.77000000000001 84.89000000000001 34.45000000000001 C 84.29000000000002 35.15000000000001 83.69000000000001 35.85000000000001 83.10000000000001 36.55000000000001 C 82.50000000000001 37.24000000000001 81.94000000000001 37.95000000000001 81.39000000000001 38.66000000000001 C 80.85000000000001 39.37000000000001 80.27000000000001 40.04000000000001 79.77000000000001 40.750000000000014 C 78.75000000000001 42.15000000000001 77.75000000000001 43.500000000000014 76.88000000000001 44.84000000000002 C 75.97000000000001 46.15000000000002 75.19000000000001 47.43000000000002 74.46000000000001 48.61000000000002 C 73.71000000000001 49.78000000000002 73.11000000000001 50.89000000000002 72.55000000000001 51.86000000000002 C 71.99000000000001 52.82000000000002 71.52000000000001 53.700000000000024 71.14000000000001 54.43000000000002 C 70.38000000000001 55.880000000000024 69.94000000000001 56.71000000000002 69.94000000000001 56.71000000000002 C 69.59000000000002 57.380000000000024 68.76 57.64000000000002 68.09000000000002 57.28000000000002 C 67.42000000000003 56.92000000000002 67.16000000000001 56.10000000000002 67.52000000000002 55.43000000000002 z" stroke-linecap="round" />
</g>
		<g transform="matrix(1 0 0 1 -31.03 -12.55)"  >
<path style="stroke: none; stroke-width: 1; stroke-dasharray: none; stroke-linecap: butt; stroke-dashoffset: 0; stroke-linejoin: miter; stroke-miterlimit: 4; fill: rgb(51,105,30); fill-rule: nonzero; opacity: 0.2;" vector-effect="non-scaling-stroke"  transform=" translate(-33.03, -52.65)" d="M 54.46 68.86 C 54.46 68.86 54.03 68.05 53.27 66.64 C 53.080000000000005 66.29 52.870000000000005 65.9 52.64 65.47 C 52.39 65.07 52.12 64.64 51.84 64.17999999999999 C 51.27 63.24999999999999 50.64 62.199999999999996 49.830000000000005 61.10999999999999 C 49.440000000000005 60.559999999999995 49.03000000000001 59.97999999999999 48.61000000000001 59.38999999999999 C 48.150000000000006 58.81999999999999 47.68000000000001 58.23 47.20000000000001 57.629999999999995 C 46.26000000000001 56.38999999999999 45.10000000000001 55.23 43.98000000000001 53.959999999999994 C 42.76000000000001 52.78999999999999 41.56000000000001 51.49999999999999 40.180000000000014 50.35999999999999 C 38.860000000000014 49.14999999999999 37.41000000000001 48.06999999999999 35.97000000000001 46.959999999999994 C 34.48000000000001 45.92999999999999 33.01000000000001 44.849999999999994 31.450000000000014 43.96999999999999 C 29.940000000000012 43.00999999999999 28.360000000000014 42.21999999999999 26.850000000000016 41.419999999999995 C 26.090000000000014 41.029999999999994 25.310000000000016 40.709999999999994 24.570000000000014 40.35999999999999 C 23.820000000000014 40.01999999999999 23.090000000000014 39.67999999999999 22.350000000000016 39.419999999999995 C 21.620000000000015 39.13999999999999 20.910000000000014 38.85999999999999 20.220000000000017 38.599999999999994 C 19.530000000000015 38.32999999999999 18.840000000000018 38.14999999999999 18.190000000000015 37.92999999999999 C 17.540000000000017 37.71999999999999 16.910000000000014 37.519999999999996 16.310000000000016 37.33999999999999 C 15.700000000000017 37.17999999999999 15.130000000000017 37.03999999999999 14.590000000000016 36.89999999999999 C 13.510000000000016 36.60999999999999 12.570000000000016 36.37999999999999 11.780000000000015 36.24999999999999 C 10.210000000000015 35.93999999999999 9.310000000000015 35.769999999999996 9.310000000000015 35.769999999999996 C 9.310000000000015 35.769999999999996 10.220000000000015 35.91 11.800000000000015 36.15 C 12.600000000000016 36.25 13.550000000000015 36.449999999999996 14.650000000000015 36.69 C 15.200000000000015 36.809999999999995 15.780000000000015 36.93 16.390000000000015 37.059999999999995 C 17.000000000000014 37.21999999999999 17.630000000000013 37.4 18.300000000000015 37.58 C 18.960000000000015 37.769999999999996 19.670000000000016 37.93 20.370000000000015 38.17 C 21.080000000000016 38.410000000000004 21.800000000000015 38.65 22.550000000000015 38.910000000000004 C 23.310000000000016 39.150000000000006 24.060000000000016 39.46 24.830000000000016 39.77 C 25.600000000000016 40.09 26.400000000000016 40.38 27.180000000000017 40.74 C 28.740000000000016 41.480000000000004 30.37000000000002 42.22 31.950000000000017 43.13 C 33.570000000000014 43.96 35.110000000000014 45 36.670000000000016 45.980000000000004 C 38.180000000000014 47.050000000000004 39.710000000000015 48.1 41.110000000000014 49.27 C 42.570000000000014 50.370000000000005 43.850000000000016 51.64 45.15000000000001 52.800000000000004 C 46.350000000000016 54.06 47.600000000000016 55.2 48.62000000000001 56.440000000000005 C 49.15000000000001 57.040000000000006 49.66000000000001 57.63 50.15000000000001 58.2 C 50.610000000000014 58.800000000000004 51.06000000000001 59.370000000000005 51.48000000000001 59.92 C 52.360000000000014 61.010000000000005 53.08000000000001 62.08 53.71000000000001 63.04 C 54.03000000000001 63.519999999999996 54.330000000000005 63.96 54.61000000000001 64.37 C 54.86000000000001 64.79 55.09 65.17 55.290000000000006 65.51 C 56.11000000000001 66.89 56.580000000000005 67.68 56.580000000000005 67.68 C 56.92000000000001 68.26 56.730000000000004 69 56.150000000000006 69.35000000000001 C 55.57000000000001 69.70000000000002 54.82000000000001 69.50000000000001 54.480000000000004 68.92 C 54.480000000000004 68.89 54.470000000000006 68.87 54.46 68.86 z" stroke-linecap="round" />
</g>
</g>
</g>
</svg>