<?xml version="1.0" encoding="UTF-8" standalone="no" ?>
<!DOCTYPE svg PUBLIC "-//W3C//DTD SVG 1.1//EN" "http://www.w3.org/Graphics/SVG/1.1/DTD/svg11.dtd">
<svg xmlns="http://www.w3.org/2000/svg" xmlns:xlink="http://www.w3.org/1999/xlink" version="1.1" width="1080" height="1080" viewBox="0 0 1080 1080" xml:space="preserve">
<desc>Created with Fabric.js 5.2.4</desc>
<defs>
</defs>
<rect x="0" y="0" width="100%" height="100%" fill="transparent"></rect>
<g transform="matrix(1 0 0 1 540 540)" id="d69dc9cd-e00d-4943-9140-d1fe368f46b8"  >
<rect style="stroke: none; stroke-width: 1; stroke-dasharray: none; stroke-linecap: butt; stroke-dashoffset: 0; stroke-linejoin: miter; stroke-miterlimit: 4; fill: rgb(255,255,255); fill-rule: nonzero; opacity: 1; visibility: hidden;" vector-effect="non-scaling-stroke"  x="-540" y="-540" rx="0" ry="0" width="1080" height="1080" />
</g>
<g transform="matrix(1 0 0 1 540 540)" id="23023e98-8db0-48df-89c4-91c67716206a"  >
</g>
<g transform="matrix(15.2 0 0 15.2 540 540)" id="02cca83f-80fa-4b15-bed2-a85c4a0d844c"  >
<circle style="stroke: rgb(0,0,0); stroke-width: 0; stroke-dasharray: none; stroke-linecap: butt; stroke-dashoffset: 0; stroke-linejoin: miter; stroke-miterlimit: 4; fill: rgb(255,255,255); fill-rule: nonzero; opacity: 1;" vector-effect="non-scaling-stroke"  cx="0" cy="0" r="35" />
</g>
<g transform="matrix(18.22 0 0 18.22 540 540)"  >
<g style="" vector-effect="non-scaling-stroke"   >
		<g transform="matrix(1 0 0 1 0 0)"  >
<path style="stroke: none; stroke-width: 1; stroke-dasharray: none; stroke-linecap: butt; stroke-dashoffset: 0; stroke-linejoin: miter; stroke-miterlimit: 4; fill: rgb(234,89,110); fill-rule: nonzero; opacity: 1;" vector-effect="non-scaling-stroke"  transform=" translate(-18, -18)" d="M 26.751 8.007 C 28.115000000000002 9.372 30.115000000000002 9.715 31.797 9.039 L 35.410000000000004 12.65 C 36.147000000000006 13.39 36.148 14.588000000000001 35.406000000000006 15.33 L 15.319000000000006 35.405 C 14.576000000000006 36.144 13.379000000000007 36.142 12.638000000000005 35.405 L 9.032000000000005 31.793 C 9.704000000000006 30.108999999999998 9.362000000000005 28.111 8.000000000000005 26.746 C 6.633000000000005 25.381 4.6360000000000054 25.038999999999998 2.9530000000000056 25.714 L 0.5940000000000056 23.354 C -0.14599999999999436 22.617 -0.14799999999999436 21.416 0.5940000000000056 20.674 L 20.678000000000004 0.5960000000000001 C 21.417000000000005 -0.1439999999999999 22.614000000000004 -0.1449999999999999 23.357000000000003 0.5980000000000001 L 25.718000000000004 2.9590000000000005 C 25.041000000000004 4.642 25.387000000000004 6.640000000000001 26.751000000000005 8.007000000000001 z" stroke-linecap="round" />
</g>
		<g transform="matrix(1 0 0 1 0 0)"  >
<path style="stroke: none; stroke-width: 1; stroke-dasharray: none; stroke-linecap: butt; stroke-dashoffset: 0; stroke-linejoin: miter; stroke-miterlimit: 4; fill: rgb(190,25,49); fill-rule: nonzero; opacity: 1;" vector-effect="non-scaling-stroke"  transform=" translate(-18, -18)" d="M 5.42 18.527 L 3.271 20.675 C 2.532 21.414 2.53 22.614 3.268 23.355 L 3.8099999999999996 23.896 C 5.7059999999999995 23.391000000000002 7.808999999999999 23.878 9.292 25.364 C 10.78 26.85 11.263 28.953 10.759 30.845 L 12.637 32.728 C 13.378 33.467 14.578000000000001 33.467 15.319 32.726 L 17.508000000000003 30.538999999999998 z M 18.941000000000003 29.107 L 29.099000000000004 18.955 L 17.008000000000003 6.942999999999998 L 6.854000000000003 17.095 z M 20.931 15.113999999999999 C 23.176000000000002 17.342 23.676000000000002 20.47 22.052 22.102999999999998 C 20.425 23.738 17.29 23.253999999999998 15.050999999999998 21.028 C 12.811999999999998 18.799999999999997 12.312999999999999 15.669999999999998 13.936999999999998 14.036999999999999 C 15.561999999999998 12.407 18.691999999999997 12.886999999999999 20.930999999999997 15.113999999999999 z M 32.731 12.649999999999999 L 30.85 10.768999999999998 C 28.955000000000002 11.271999999999998 26.852 10.79 25.367 9.300999999999998 C 23.879 7.816999999999998 23.391000000000002 5.709999999999998 23.897000000000002 3.8169999999999984 L 23.356 3.270999999999998 C 22.616000000000003 2.5359999999999983 21.416 2.5359999999999983 20.678 3.2739999999999982 L 18.442 5.509999999999998 L 30.534 17.520999999999997 L 32.73 15.325999999999997 C 33.47 14.588999999999997 33.47 13.389999999999997 32.730999999999995 12.649999999999997 z" stroke-linecap="round" />
</g>
</g>
</g>
</svg>