<?xml version="1.0" encoding="UTF-8" standalone="no" ?>
<!DOCTYPE svg PUBLIC "-//W3C//DTD SVG 1.1//EN" "http://www.w3.org/Graphics/SVG/1.1/DTD/svg11.dtd">
<svg xmlns="http://www.w3.org/2000/svg" xmlns:xlink="http://www.w3.org/1999/xlink" version="1.1" width="1080" height="1080" viewBox="0 0 1080 1080" xml:space="preserve">
<desc>Created with Fabric.js 5.2.4</desc>
<defs>
</defs>
<rect x="0" y="0" width="100%" height="100%" fill="transparent"></rect>
<g transform="matrix(1 0 0 1 540 540)" id="23023e98-8db0-48df-89c4-91c67716206a"  >
</g>
<g transform="matrix(1 0 0 1 540 540)" id="d69dc9cd-e00d-4943-9140-d1fe368f46b8"  >
<rect style="stroke: none; stroke-width: 1; stroke-dasharray: none; stroke-linecap: butt; stroke-dashoffset: 0; stroke-linejoin: miter; stroke-miterlimit: 4; fill: rgb(255,255,255); fill-rule: nonzero; opacity: 1; visibility: hidden;" vector-effect="non-scaling-stroke"  x="-540" y="-540" rx="0" ry="0" width="1080" height="1080" />
</g>
<g transform="matrix(15.2 0 0 15.2 540 540)" id="02cca83f-80fa-4b15-bed2-a85c4a0d844c"  >
<circle style="stroke: rgb(0,0,0); stroke-width: 0; stroke-dasharray: none; stroke-linecap: butt; stroke-dashoffset: 0; stroke-linejoin: miter; stroke-miterlimit: 4; fill: rgb(255,255,255); fill-rule: nonzero; opacity: 1;" vector-effect="non-scaling-stroke"  cx="0" cy="0" r="35" />
</g>
<g transform="matrix(17.02 0 0 17.02 540 540)"  >
<g style="" vector-effect="non-scaling-stroke"   >
		<g transform="matrix(1 0 0 1 -7.5 -5)"  >
<path style="stroke: none; stroke-width: 1; stroke-dasharray: none; stroke-linecap: butt; stroke-dashoffset: 0; stroke-linejoin: miter; stroke-miterlimit: 4; fill: rgb(193,105,79); fill-rule: nonzero; opacity: 1;" vector-effect="non-scaling-stroke"  transform=" translate(-10.5, -13.5)" d="M 21 15 C 21 17.209 19.209 19 17 19 L 4 19 C 1.791 19 0 17.209 0 15 L 0 12 C 0 9.791 1.791 8 4 8 L 17 8 C 19.209 8 21 9.791 21 12 L 21 15 z" stroke-linecap="round" />
</g>
		<g transform="matrix(1 0 0 1 8 -13)"  >
<path style="stroke: none; stroke-width: 1; stroke-dasharray: none; stroke-linecap: butt; stroke-dashoffset: 0; stroke-linejoin: miter; stroke-miterlimit: 4; fill: rgb(193,105,79); fill-rule: nonzero; opacity: 1;" vector-effect="non-scaling-stroke"  transform=" translate(-26, -5.5)" d="M 36 6 C 36 8.209 34.209 10 32 10 L 20 10 C 17.791 10 16 8.209 16 6 L 16 5 C 16 2.791 17.791 1 20 1 L 32 1 C 34.209 1 36 2.791 36 5 L 36 6 z" stroke-linecap="round" />
</g>
		<g transform="matrix(1 0 0 1 -1.5 5.5)"  >
<path style="stroke: none; stroke-width: 1; stroke-dasharray: none; stroke-linecap: butt; stroke-dashoffset: 0; stroke-linejoin: miter; stroke-miterlimit: 4; fill: rgb(255,204,77); fill-rule: nonzero; opacity: 1;" vector-effect="non-scaling-stroke"  transform=" translate(-16.5, -24)" d="M 0 12 L 0 34 C 0 35.104 0.896 36 2 36 L 33 36 L 33 12 L 0 12 z" stroke-linecap="round" />
</g>
		<g transform="matrix(1 0 0 1 -8 12.5)"  >
<path style="stroke: none; stroke-width: 1; stroke-dasharray: none; stroke-linecap: butt; stroke-dashoffset: 0; stroke-linejoin: miter; stroke-miterlimit: 4; fill: rgb(85,172,238); fill-rule: nonzero; opacity: 1;" vector-effect="non-scaling-stroke"  transform=" translate(-10, -31)" d="M 2 32 L 14 32 L 14 36 L 2 36 z M 2 26 L 18 26 L 18 30 L 2 30 z" stroke-linecap="round" />
</g>
		<g transform="matrix(1 0 0 1 8 2)"  >
<path style="stroke: none; stroke-width: 1; stroke-dasharray: none; stroke-linecap: butt; stroke-dashoffset: 0; stroke-linejoin: miter; stroke-miterlimit: 4; fill: rgb(255,232,182); fill-rule: nonzero; opacity: 1;" vector-effect="non-scaling-stroke"  transform=" translate(-26, -20.5)" d="M 16 5 L 16 36 L 34 36 C 35.104 36 36 35.104 36 34 L 36 5 L 16 5 z" stroke-linecap="round" />
</g>
		<g transform="matrix(1 0 0 1 8 0.5)"  >
<path style="stroke: none; stroke-width: 1; stroke-dasharray: none; stroke-linecap: butt; stroke-dashoffset: 0; stroke-linejoin: miter; stroke-miterlimit: 4; fill: rgb(85,172,238); fill-rule: nonzero; opacity: 1;" vector-effect="non-scaling-stroke"  transform=" translate(-26, -19)" d="M 18 20 L 34 20 L 34 24 L 18 24 z M 18 14 L 34 14 L 34 18 L 18 18 z M 18 8 L 34 8 L 34 12 L 18 12 z M 18 26 L 34 26 L 34 30 L 18 30 z" stroke-linecap="round" />
</g>
		<g transform="matrix(1 0 0 1 8 0.5)"  >
<path style="stroke: none; stroke-width: 1; stroke-dasharray: none; stroke-linecap: butt; stroke-dashoffset: 0; stroke-linejoin: miter; stroke-miterlimit: 4; fill: rgb(255,232,182); fill-rule: nonzero; opacity: 1;" vector-effect="non-scaling-stroke"  transform=" translate(-26, -19)" d="M 22 7 L 24 7 L 24 31 L 22 31 z M 28 7 L 30 7 L 30 31 L 28 31 z" stroke-linecap="round" />
</g>
		<g transform="matrix(1 0 0 1 -1 6.5)"  >
<path style="stroke: none; stroke-width: 1; stroke-dasharray: none; stroke-linecap: butt; stroke-dashoffset: 0; stroke-linejoin: miter; stroke-miterlimit: 4; fill: rgb(59,136,195); fill-rule: nonzero; opacity: 1;" vector-effect="non-scaling-stroke"  transform=" translate(-17, -25)" d="M 22 32 L 30 32 L 30 36 L 22 36 z M 10 14 L 10 18 L 6 18 L 6 14 L 4 14 L 4 24 L 6 24 L 6 20 L 10 20 L 10 24 L 12 24 L 12 14 z" stroke-linecap="round" />
</g>
		<g transform="matrix(1 0 0 1 -6.5 9.5)"  >
<path style="stroke: none; stroke-width: 1; stroke-dasharray: none; stroke-linecap: butt; stroke-dashoffset: 0; stroke-linejoin: miter; stroke-miterlimit: 4; fill: rgb(255,204,77); fill-rule: nonzero; opacity: 1;" vector-effect="non-scaling-stroke"  transform=" translate(-11.5, -28)" d="M 7 25 L 9 25 L 9 31 L 7 31 z M 14 25 L 16 25 L 16 31 L 14 31 z" stroke-linecap="round" />
</g>
</g>
</g>
</svg>