<?xml version="1.0" encoding="UTF-8" standalone="no" ?>
<!DOCTYPE svg PUBLIC "-//W3C//DTD SVG 1.1//EN" "http://www.w3.org/Graphics/SVG/1.1/DTD/svg11.dtd">
<svg xmlns="http://www.w3.org/2000/svg" xmlns:xlink="http://www.w3.org/1999/xlink" version="1.1" width="1080" height="1080" viewBox="0 0 1080 1080" xml:space="preserve">
<rect x="0" y="0" width="100%" height="100%" fill="transparent"></rect>
<g transform="matrix(1 0 0 1 540 540)" id="23023e98-8db0-48df-89c4-91c67716206a"  >
</g>
<g transform="matrix(1 0 0 1 540 540)" id="d69dc9cd-e00d-4943-9140-d1fe368f46b8"  >
<rect style="stroke: none; stroke-width: 1; stroke-dasharray: none; stroke-linecap: butt; stroke-dashoffset: 0; stroke-linejoin: miter; stroke-miterlimit: 4; fill: rgb(255,255,255); fill-rule: nonzero; opacity: 1; visibility: hidden;" vector-effect="non-scaling-stroke"  x="-540" y="-540" rx="0" ry="0" width="1080" height="1080" />
</g>
<g transform="matrix(15.2 0 0 15.2 541.43 543.02)" id="02cca83f-80fa-4b15-bed2-a85c4a0d844c"  >
<circle style="stroke: rgb(0,0,0); stroke-width: 0; stroke-dasharray: none; stroke-linecap: butt; stroke-dashoffset: 0; stroke-linejoin: miter; stroke-miterlimit: 4; fill: rgb(255,255,255); fill-rule: nonzero; opacity: 1;" vector-effect="non-scaling-stroke"  cx="0" cy="0" r="35" />
</g>
<g transform="matrix(15.98 0 0 15.98 540 540)"  >
<g style="" vector-effect="non-scaling-stroke"   >
		<g transform="matrix(1 0 0 1 0 2.5)"  >
<path style="stroke: none; stroke-width: 1; stroke-dasharray: none; stroke-linecap: butt; stroke-dashoffset: 0; stroke-linejoin: miter; stroke-miterlimit: 4; fill: rgb(41,47,51); fill-rule: nonzero; opacity: 1;" vector-effect="non-scaling-stroke"  transform=" translate(-18, -20)" d="M 7 11 L 29 11 L 29 29 L 7 29 z" stroke-linecap="round" />
</g>
		<g transform="matrix(1 0 0 1 0 2.5)"  >
<path style="stroke: none; stroke-width: 1; stroke-dasharray: none; stroke-linecap: butt; stroke-dashoffset: 0; stroke-linejoin: miter; stroke-miterlimit: 4; fill: rgb(204,214,221); fill-rule: nonzero; opacity: 1;" vector-effect="non-scaling-stroke"  transform=" translate(-18, -20)" d="M 8 29 C 8 30.104 7.4030000000000005 31 6.667 31 L 5.333 31 C 4.597 31 4 30.104 4 29 L 4 11 C 4 9.896 4.5969999999999995 9 5.333 9 L 6.666 9 C 7.403 9 8 9.896 8 11 L 8 29 z M 32 29 C 32 30.104 31.403 31 30.667 31 L 29.333000000000002 31 C 28.597 31 28 30.104 28 29 L 28 11 C 28 9.896 28.597 9 29.333 9 L 30.666999999999998 9 C 31.403 9 32 9.896 32 11 L 32 29 z M 16 29 C 16 30.104 15.403 31 14.667 31 L 13.334 31 C 12.597 31 12 30.104 12 29 L 12 11 C 12 9.896 12.597 9 13.333 9 L 14.666 9 C 15.403 9 16 9.896 16 11 L 16 29 z M 24 29 C 24 30.104 23.402 31 22.666 31 L 21.334 31 C 20.598 31 20 30.104 20 29 L 20 11 C 20 9.896 20.598 9 21.334 9 L 22.666 9 C 23.402 9 24 9.896 24 11 L 24 29 z" stroke-linecap="round" />
</g>
		<g transform="matrix(1 0 0 1 0 12.5)"  >
<path style="stroke: none; stroke-width: 1; stroke-dasharray: none; stroke-linecap: butt; stroke-dashoffset: 0; stroke-linejoin: miter; stroke-miterlimit: 4; fill: rgb(154,170,180); fill-rule: nonzero; opacity: 1;" vector-effect="non-scaling-stroke"  transform=" translate(-18, -30)" d="M 33 30 C 33 31.104 32.104 32 31 32 L 5 32 C 3.896 32 3 31.104 3 30 C 3 28.896 3.896 28 5 28 L 31 28 C 32.104 28 33 28.896 33 30 z" stroke-linecap="round" />
</g>
		<g transform="matrix(1 0 0 1 0 14.5)"  >
<path style="stroke: none; stroke-width: 1; stroke-dasharray: none; stroke-linecap: butt; stroke-dashoffset: 0; stroke-linejoin: miter; stroke-miterlimit: 4; fill: rgb(204,214,221); fill-rule: nonzero; opacity: 1;" vector-effect="non-scaling-stroke"  transform=" translate(-18, -32)" d="M 35 32 C 35 33.104 34.104 34 33 34 L 3 34 C 1.896 34 1 33.104 1 32 C 1 30.896 1.896 30 3 30 L 33 30 C 34.104 30 35 30.896 35 32 z" stroke-linecap="round" />
</g>
		<g transform="matrix(1 0 0 1 0 16)"  >
<path style="stroke: none; stroke-width: 1; stroke-dasharray: none; stroke-linecap: butt; stroke-dashoffset: 0; stroke-linejoin: miter; stroke-miterlimit: 4; fill: rgb(225,232,237); fill-rule: nonzero; opacity: 1;" vector-effect="non-scaling-stroke"  transform=" translate(-18, -33.5)" d="M 36 33.5 C 36 34.328 35.328 35 34.5 35 L 1.5 35 C 0.671 35 0 34.328 0 33.5 C 0 32.672 0.671 32 1.5 32 L 34.5 32 C 35.328 32 36 32.672 36 33.5 z" stroke-linecap="round" />
</g>
		<g transform="matrix(1 0 0 1 0 -7)"  >
<path style="stroke: none; stroke-width: 1; stroke-dasharray: none; stroke-linecap: butt; stroke-dashoffset: 0; stroke-linejoin: miter; stroke-miterlimit: 4; fill: rgb(154,170,180); fill-rule: nonzero; opacity: 1;" vector-effect="non-scaling-stroke"  transform=" translate(-18, -10.5)" d="M 33 10 C 33 8.896 32.044 8 30.867 8 L 5 8 C 3.8209999999999997 8 3 8.896 3 10 C 3 10.751 3.386 11.398 4 11.74 L 4 13 L 8 13 L 8 12 L 12 12 L 12 13 L 16 13 L 16 12 L 20 12 L 20 13 L 24 13 L 24 12 L 28 12 L 28 13 L 32 13 L 32 11.688 C 32.599 11.334000000000001 33 10.713000000000001 33 10 z" stroke-linecap="round" />
</g>
		<g transform="matrix(1 0 0 1 0 -13)"  >
<path style="stroke: none; stroke-width: 1; stroke-dasharray: none; stroke-linecap: butt; stroke-dashoffset: 0; stroke-linejoin: miter; stroke-miterlimit: 4; fill: rgb(204,214,221); fill-rule: nonzero; opacity: 1;" vector-effect="non-scaling-stroke"  transform=" translate(-18, -4.5)" d="M 2 8.444 C 2 7.413 3.012 7 3.012 7 L 17.916 0 L 32.963 7 C 32.963 7 34 7.231 34 8.45 L 34 9 L 2 9 L 2 8.443999999999999 z" stroke-linecap="round" />
</g>
		<g transform="matrix(1 0 0 1 0 -11.73)"  >
<path style="stroke: none; stroke-width: 1; stroke-dasharray: none; stroke-linecap: butt; stroke-dashoffset: 0; stroke-linejoin: miter; stroke-miterlimit: 4; fill: rgb(154,170,180); fill-rule: nonzero; opacity: 1;" vector-effect="non-scaling-stroke"  transform=" translate(-18, -5.77)" d="M 18 2.542 C 18 2.542 7.681 7.407 6.65 7.844 C 5.619 8.281 5.964 9 6.651 9 L 29.297 9 C 30.359 9 30.109 8.188 29.266000000000002 7.75 C 28.422 7.312 18 2.542 18 2.542 z" stroke-linecap="round" />
</g>
		<g transform="matrix(1 0 0 1 0 -8.5)"  >
<path style="stroke: none; stroke-width: 1; stroke-dasharray: none; stroke-linecap: butt; stroke-dashoffset: 0; stroke-linejoin: miter; stroke-miterlimit: 4; fill: rgb(204,214,221); fill-rule: nonzero; opacity: 1;" vector-effect="non-scaling-stroke"  transform=" translate(-18, -9)" d="M 34 9 C 34 9.552 33.553 10 33 10 L 3 10 C 2.448 10 2 9.552 2 9 C 2 8.448 2.448 8 3 8 L 33 8.006 C 33.553 8.006 34 8.448 34 9 z" stroke-linecap="round" />
</g>
</g>
</g>
</svg>