<?xml version="1.0" encoding="UTF-8" standalone="no" ?>
<!DOCTYPE svg PUBLIC "-//W3C//DTD SVG 1.1//EN" "http://www.w3.org/Graphics/SVG/1.1/DTD/svg11.dtd">
<svg xmlns="http://www.w3.org/2000/svg" xmlns:xlink="http://www.w3.org/1999/xlink" version="1.1" width="1080" height="1080" viewBox="0 0 1080 1080" xml:space="preserve">
<desc>Created with Fabric.js 5.2.4</desc>
<defs>
</defs>
<rect x="0" y="0" width="100%" height="100%" fill="transparent"></rect>
<g transform="matrix(1 0 0 1 540 540)" id="23023e98-8db0-48df-89c4-91c67716206a"  >
</g>
<g transform="matrix(1 0 0 1 540 540)" id="d69dc9cd-e00d-4943-9140-d1fe368f46b8"  >
<rect style="stroke: none; stroke-width: 1; stroke-dasharray: none; stroke-linecap: butt; stroke-dashoffset: 0; stroke-linejoin: miter; stroke-miterlimit: 4; fill: rgb(255,255,255); fill-rule: nonzero; opacity: 1; visibility: hidden;" vector-effect="non-scaling-stroke"  x="-540" y="-540" rx="0" ry="0" width="1080" height="1080" />
</g>
<g transform="matrix(15.2 0 0 15.2 541.43 543.02)" id="02cca83f-80fa-4b15-bed2-a85c4a0d844c"  >
<circle style="stroke: rgb(0,0,0); stroke-width: 0; stroke-dasharray: none; stroke-linecap: butt; stroke-dashoffset: 0; stroke-linejoin: miter; stroke-miterlimit: 4; fill: rgb(255,255,255); fill-rule: nonzero; opacity: 1;" vector-effect="non-scaling-stroke"  cx="0" cy="0" r="35" />
</g>
<g transform="matrix(15.43 0 0 15.43 540 540)"  >
<g style="" vector-effect="non-scaling-stroke"   >
		<g transform="matrix(1 0 0 1 -7 -10)"  >
<path style="stroke: none; stroke-width: 1; stroke-dasharray: none; stroke-linecap: butt; stroke-dashoffset: 0; stroke-linejoin: miter; stroke-miterlimit: 4; fill: rgb(244,144,12); fill-rule: nonzero; opacity: 1;" vector-effect="non-scaling-stroke"  transform=" translate(-11, -8)" d="M 11 0 C 6.582 0 3 3.582 3 8 L 3 16 L 5 16 L 5 8 C 5 4.686999999999999 7.686999999999999 2 11 2 C 14.314 2 17 4.686999999999999 17 8 L 17 16 L 19 16 L 19 8 C 19 3.582 15.418 0 11 0 z" stroke-linecap="round" />
</g>
		<g transform="matrix(1 0 0 1 -7 1.5)"  >
<path style="stroke: none; stroke-width: 1; stroke-dasharray: none; stroke-linecap: butt; stroke-dashoffset: 0; stroke-linejoin: miter; stroke-miterlimit: 4; fill: rgb(221,46,68); fill-rule: nonzero; opacity: 1;" vector-effect="non-scaling-stroke"  transform=" translate(-11, -19.5)" d="M 1 8 L 3 10 L 5 8 L 7 10 L 9 8 L 11 10 L 13 8 L 15 10 L 17 8 L 19 10 L 21 8 L 21 31 L 1 31 z" stroke-linecap="round" />
</g>
		<g transform="matrix(1 0 0 1 7 -5)"  >
<path style="stroke: none; stroke-width: 1; stroke-dasharray: none; stroke-linecap: butt; stroke-dashoffset: 0; stroke-linejoin: miter; stroke-miterlimit: 4; fill: rgb(255,204,77); fill-rule: nonzero; opacity: 1;" vector-effect="non-scaling-stroke"  transform=" translate(-25, -13)" d="M 25 5 C 20.582 5 17 8.582 17 13 L 17 21 L 19 21 L 19 13 C 19 9.686 21.688 7 25 7 C 28.315 7 31 9.686 31 13 L 31 21 L 33 21 L 33 13 C 33 8.582 29.418 5 25 5 z" stroke-linecap="round" />
</g>
		<g transform="matrix(1 0 0 1 7 6.5)"  >
<path style="stroke: none; stroke-width: 1; stroke-dasharray: none; stroke-linecap: butt; stroke-dashoffset: 0; stroke-linejoin: miter; stroke-miterlimit: 4; fill: rgb(116,78,170); fill-rule: nonzero; opacity: 1;" vector-effect="non-scaling-stroke"  transform=" translate(-25, -24.5)" d="M 15 13 L 17 15 L 19 13 L 21 15 L 23 13 L 25 15 L 27 13 L 29 15 L 31 13 L 33 15 L 35 13 L 35 36 L 15 36 z" stroke-linecap="round" />
</g>
</g>
</g>
</svg>